# xmcd
# 
# Track frame offsets:
#     182
#     22260
#     42275
#     58320
#     81620
#     97200
#     117327
#     139955
#     153297
#     174265
# 
# Disc length: 2577
# 
# Revision: 1
# Processed by: cddbd v1.5.2PL0 Copyright (c) Steve Scherf et al.
# Submitted via: BonkEnc v1.0.8
# 
DISCID=910a0f0a
DTITLE=Alberto Plaza - Complices
DYEAR=1991
DGENRE=Latin
TTITLE0=Aventurera
TTITLE1=Quedate Sola
TTITLE2=Ahora Esa Mujer
TTITLE3=Por El Echo De Estar Sin Ti
TTITLE4=Sin Luna Ni Nada
TTITLE5=Complices
TTITLE6=Tantos Diciembres
TTITLE7=Toma Una Esperanza
TTITLE8=Sabia
TTITLE9=Dime, Hermano
EXTD=
EXTT0=
EXTT1=
EXTT2=
EXTT3=
EXTT4=
EXTT5=
EXTT6=
EXTT7=
EXTT8=
EXTT9=
PLAYORDER=
